<mxfile host="app.diagrams.net" agent="Mozilla/5.0 (Windows NT 10.0; Win64; x64) AppleWebKit/537.36 (KHTML, like Gecko) Chrome/136.0.0.0 Safari/537.36" version="27.0.1">
  <diagram name="Página-1" id="IQJYvZ-tAJqyROfqTXo8">
    <mxGraphModel dx="1501" dy="2018" grid="1" gridSize="10" guides="1" tooltips="1" connect="1" arrows="1" fold="1" page="1" pageScale="1" pageWidth="1920" pageHeight="1200" math="0" shadow="0">
      <root>
        <mxCell id="0" />
        <mxCell id="1" parent="0" />
        <mxCell id="5eT7uDyZR-PTK469yZFg-24" style="edgeStyle=orthogonalEdgeStyle;rounded=0;orthogonalLoop=1;jettySize=auto;html=1;exitX=0.5;exitY=0.5;exitDx=0;exitDy=0;exitPerimeter=0;entryX=0.5;entryY=0;entryDx=0;entryDy=0;" edge="1" parent="1" source="5eT7uDyZR-PTK469yZFg-1" target="5eT7uDyZR-PTK469yZFg-23">
          <mxGeometry relative="1" as="geometry" />
        </mxCell>
        <mxCell id="5eT7uDyZR-PTK469yZFg-1" value="Acompanhante" style="shape=umlActor;verticalLabelPosition=top;verticalAlign=bottom;html=1;outlineConnect=0;labelPosition=center;align=center;" vertex="1" parent="1">
          <mxGeometry x="1370" y="30" width="30" height="60" as="geometry" />
        </mxCell>
        <mxCell id="5eT7uDyZR-PTK469yZFg-11" style="edgeStyle=orthogonalEdgeStyle;rounded=0;orthogonalLoop=1;jettySize=auto;html=1;exitX=0.5;exitY=1;exitDx=0;exitDy=0;entryX=0.5;entryY=0;entryDx=0;entryDy=0;" edge="1" parent="1" source="5eT7uDyZR-PTK469yZFg-15" target="5eT7uDyZR-PTK469yZFg-9">
          <mxGeometry relative="1" as="geometry">
            <mxPoint x="380" y="180" as="sourcePoint" />
          </mxGeometry>
        </mxCell>
        <mxCell id="5eT7uDyZR-PTK469yZFg-12" style="edgeStyle=orthogonalEdgeStyle;rounded=0;orthogonalLoop=1;jettySize=auto;html=1;exitX=0.5;exitY=1;exitDx=0;exitDy=0;" edge="1" parent="1" source="5eT7uDyZR-PTK469yZFg-15" target="5eT7uDyZR-PTK469yZFg-6">
          <mxGeometry relative="1" as="geometry">
            <mxPoint x="350" y="180" as="sourcePoint" />
          </mxGeometry>
        </mxCell>
        <mxCell id="5eT7uDyZR-PTK469yZFg-13" style="edgeStyle=orthogonalEdgeStyle;rounded=0;orthogonalLoop=1;jettySize=auto;html=1;exitX=0.408;exitY=0.92;exitDx=0;exitDy=0;exitPerimeter=0;entryX=0.5;entryY=0;entryDx=0;entryDy=0;" edge="1" parent="1" source="5eT7uDyZR-PTK469yZFg-15" target="5eT7uDyZR-PTK469yZFg-7">
          <mxGeometry relative="1" as="geometry">
            <mxPoint x="365" y="150" as="sourcePoint" />
          </mxGeometry>
        </mxCell>
        <mxCell id="5eT7uDyZR-PTK469yZFg-14" style="edgeStyle=orthogonalEdgeStyle;rounded=0;orthogonalLoop=1;jettySize=auto;html=1;exitX=0.583;exitY=1;exitDx=0;exitDy=0;exitPerimeter=0;" edge="1" parent="1" source="5eT7uDyZR-PTK469yZFg-15" target="5eT7uDyZR-PTK469yZFg-8">
          <mxGeometry relative="1" as="geometry">
            <mxPoint x="365" y="150" as="sourcePoint" />
          </mxGeometry>
        </mxCell>
        <mxCell id="5eT7uDyZR-PTK469yZFg-73" style="edgeStyle=orthogonalEdgeStyle;rounded=0;orthogonalLoop=1;jettySize=auto;html=1;exitX=0.5;exitY=1;exitDx=0;exitDy=0;" edge="1" parent="1" source="5eT7uDyZR-PTK469yZFg-6" target="5eT7uDyZR-PTK469yZFg-74">
          <mxGeometry relative="1" as="geometry">
            <mxPoint x="170.23529411764707" y="399.9999999999998" as="targetPoint" />
          </mxGeometry>
        </mxCell>
        <mxCell id="5eT7uDyZR-PTK469yZFg-6" value="SOS" style="ellipse;whiteSpace=wrap;html=1;" vertex="1" parent="1">
          <mxGeometry x="110" y="290" width="120" height="50" as="geometry" />
        </mxCell>
        <mxCell id="5eT7uDyZR-PTK469yZFg-7" value="Alimentação" style="ellipse;whiteSpace=wrap;html=1;" vertex="1" parent="1">
          <mxGeometry x="240" y="287.5" width="120" height="55" as="geometry" />
        </mxCell>
        <mxCell id="5eT7uDyZR-PTK469yZFg-8" value="Medicações" style="ellipse;whiteSpace=wrap;html=1;" vertex="1" parent="1">
          <mxGeometry x="370" y="287.5" width="120" height="55" as="geometry" />
        </mxCell>
        <mxCell id="5eT7uDyZR-PTK469yZFg-9" value="Atividades físicas" style="ellipse;whiteSpace=wrap;html=1;" vertex="1" parent="1">
          <mxGeometry x="500" y="290" width="120" height="55" as="geometry" />
        </mxCell>
        <mxCell id="5eT7uDyZR-PTK469yZFg-75" style="edgeStyle=orthogonalEdgeStyle;rounded=0;orthogonalLoop=1;jettySize=auto;html=1;exitX=0;exitY=0.5;exitDx=0;exitDy=0;entryX=0;entryY=0.5;entryDx=0;entryDy=0;" edge="1" parent="1" source="5eT7uDyZR-PTK469yZFg-15" target="5eT7uDyZR-PTK469yZFg-74">
          <mxGeometry relative="1" as="geometry" />
        </mxCell>
        <mxCell id="5eT7uDyZR-PTK469yZFg-15" value="Login" style="ellipse;whiteSpace=wrap;html=1;" vertex="1" parent="1">
          <mxGeometry x="310" y="170" width="120" height="50" as="geometry" />
        </mxCell>
        <mxCell id="5eT7uDyZR-PTK469yZFg-21" value="" style="edgeStyle=orthogonalEdgeStyle;rounded=0;orthogonalLoop=1;jettySize=auto;html=1;" edge="1" parent="1" source="5eT7uDyZR-PTK469yZFg-17" target="5eT7uDyZR-PTK469yZFg-15">
          <mxGeometry relative="1" as="geometry" />
        </mxCell>
        <mxCell id="5eT7uDyZR-PTK469yZFg-17" value="Idoso" style="shape=umlActor;verticalLabelPosition=top;verticalAlign=bottom;html=1;outlineConnect=0;labelPosition=center;align=center;" vertex="1" parent="1">
          <mxGeometry x="355" y="30" width="30" height="60" as="geometry" />
        </mxCell>
        <mxCell id="5eT7uDyZR-PTK469yZFg-26" style="edgeStyle=orthogonalEdgeStyle;rounded=0;orthogonalLoop=1;jettySize=auto;html=1;exitX=0.5;exitY=1;exitDx=0;exitDy=0;entryX=0.5;entryY=0;entryDx=0;entryDy=0;" edge="1" parent="1" source="5eT7uDyZR-PTK469yZFg-23" target="5eT7uDyZR-PTK469yZFg-25">
          <mxGeometry relative="1" as="geometry" />
        </mxCell>
        <mxCell id="5eT7uDyZR-PTK469yZFg-27" style="edgeStyle=orthogonalEdgeStyle;rounded=0;orthogonalLoop=1;jettySize=auto;html=1;exitX=0.5;exitY=1;exitDx=0;exitDy=0;" edge="1" parent="1" source="5eT7uDyZR-PTK469yZFg-23" target="5eT7uDyZR-PTK469yZFg-28">
          <mxGeometry relative="1" as="geometry">
            <mxPoint x="1149.9999999999995" y="240" as="targetPoint" />
          </mxGeometry>
        </mxCell>
        <mxCell id="5eT7uDyZR-PTK469yZFg-31" style="edgeStyle=orthogonalEdgeStyle;rounded=0;orthogonalLoop=1;jettySize=auto;html=1;exitX=0.5;exitY=1;exitDx=0;exitDy=0;entryX=0.5;entryY=0;entryDx=0;entryDy=0;" edge="1" parent="1" source="5eT7uDyZR-PTK469yZFg-23" target="5eT7uDyZR-PTK469yZFg-30">
          <mxGeometry relative="1" as="geometry" />
        </mxCell>
        <mxCell id="5eT7uDyZR-PTK469yZFg-23" value="Login" style="ellipse;whiteSpace=wrap;html=1;" vertex="1" parent="1">
          <mxGeometry x="1325" y="140" width="120" height="50" as="geometry" />
        </mxCell>
        <mxCell id="5eT7uDyZR-PTK469yZFg-32" style="edgeStyle=orthogonalEdgeStyle;rounded=0;orthogonalLoop=1;jettySize=auto;html=1;exitX=0.5;exitY=1;exitDx=0;exitDy=0;entryX=1;entryY=0.5;entryDx=0;entryDy=0;" edge="1" parent="1" source="5eT7uDyZR-PTK469yZFg-25" target="5eT7uDyZR-PTK469yZFg-30">
          <mxGeometry relative="1" as="geometry" />
        </mxCell>
        <mxCell id="5eT7uDyZR-PTK469yZFg-25" value="Cadastro" style="ellipse;whiteSpace=wrap;html=1;" vertex="1" parent="1">
          <mxGeometry x="1480" y="237.5" width="120" height="50" as="geometry" />
        </mxCell>
        <mxCell id="5eT7uDyZR-PTK469yZFg-29" style="edgeStyle=orthogonalEdgeStyle;rounded=0;orthogonalLoop=1;jettySize=auto;html=1;exitX=1;exitY=0.5;exitDx=0;exitDy=0;entryX=0;entryY=0.5;entryDx=0;entryDy=0;" edge="1" parent="1" source="5eT7uDyZR-PTK469yZFg-28" target="5eT7uDyZR-PTK469yZFg-23">
          <mxGeometry relative="1" as="geometry" />
        </mxCell>
        <mxCell id="5eT7uDyZR-PTK469yZFg-28" value="Recuperação de senha" style="ellipse;whiteSpace=wrap;html=1;" vertex="1" parent="1">
          <mxGeometry x="1190" y="240" width="120" height="50" as="geometry" />
        </mxCell>
        <mxCell id="5eT7uDyZR-PTK469yZFg-33" style="edgeStyle=orthogonalEdgeStyle;rounded=0;orthogonalLoop=1;jettySize=auto;html=1;exitX=0.5;exitY=1;exitDx=0;exitDy=0;" edge="1" parent="1" source="5eT7uDyZR-PTK469yZFg-30" target="5eT7uDyZR-PTK469yZFg-34">
          <mxGeometry relative="1" as="geometry">
            <mxPoint x="1149.9999999999995" y="449.9999999999998" as="targetPoint" />
          </mxGeometry>
        </mxCell>
        <mxCell id="5eT7uDyZR-PTK469yZFg-35" style="edgeStyle=orthogonalEdgeStyle;rounded=0;orthogonalLoop=1;jettySize=auto;html=1;exitX=0.5;exitY=1;exitDx=0;exitDy=0;" edge="1" parent="1" source="5eT7uDyZR-PTK469yZFg-30" target="5eT7uDyZR-PTK469yZFg-36">
          <mxGeometry relative="1" as="geometry">
            <mxPoint x="1385.5294117647059" y="429.9999999999998" as="targetPoint" />
          </mxGeometry>
        </mxCell>
        <mxCell id="5eT7uDyZR-PTK469yZFg-37" style="edgeStyle=orthogonalEdgeStyle;rounded=0;orthogonalLoop=1;jettySize=auto;html=1;exitX=0.5;exitY=1;exitDx=0;exitDy=0;" edge="1" parent="1" source="5eT7uDyZR-PTK469yZFg-30" target="5eT7uDyZR-PTK469yZFg-38">
          <mxGeometry relative="1" as="geometry">
            <mxPoint x="1385.5294117647059" y="439.9999999999998" as="targetPoint" />
          </mxGeometry>
        </mxCell>
        <mxCell id="5eT7uDyZR-PTK469yZFg-30" value="Principal" style="ellipse;whiteSpace=wrap;html=1;" vertex="1" parent="1">
          <mxGeometry x="1325" y="320" width="120" height="50" as="geometry" />
        </mxCell>
        <mxCell id="5eT7uDyZR-PTK469yZFg-41" style="edgeStyle=orthogonalEdgeStyle;rounded=0;orthogonalLoop=1;jettySize=auto;html=1;exitX=0.5;exitY=1;exitDx=0;exitDy=0;entryX=0.5;entryY=1;entryDx=0;entryDy=0;" edge="1" parent="1" source="5eT7uDyZR-PTK469yZFg-34" target="5eT7uDyZR-PTK469yZFg-36">
          <mxGeometry relative="1" as="geometry" />
        </mxCell>
        <mxCell id="5eT7uDyZR-PTK469yZFg-42" style="edgeStyle=orthogonalEdgeStyle;rounded=0;orthogonalLoop=1;jettySize=auto;html=1;exitX=0.5;exitY=1;exitDx=0;exitDy=0;entryX=0.5;entryY=1;entryDx=0;entryDy=0;" edge="1" parent="1" source="5eT7uDyZR-PTK469yZFg-34" target="5eT7uDyZR-PTK469yZFg-38">
          <mxGeometry relative="1" as="geometry" />
        </mxCell>
        <mxCell id="5eT7uDyZR-PTK469yZFg-43" style="edgeStyle=orthogonalEdgeStyle;rounded=0;orthogonalLoop=1;jettySize=auto;html=1;exitX=0.5;exitY=1;exitDx=0;exitDy=0;" edge="1" parent="1" source="5eT7uDyZR-PTK469yZFg-34" target="5eT7uDyZR-PTK469yZFg-44">
          <mxGeometry relative="1" as="geometry">
            <mxPoint x="1659.9999999999995" y="579.9999999999998" as="targetPoint" />
          </mxGeometry>
        </mxCell>
        <mxCell id="5eT7uDyZR-PTK469yZFg-46" style="edgeStyle=orthogonalEdgeStyle;rounded=0;orthogonalLoop=1;jettySize=auto;html=1;exitX=0.5;exitY=1;exitDx=0;exitDy=0;" edge="1" parent="1" source="5eT7uDyZR-PTK469yZFg-34" target="5eT7uDyZR-PTK469yZFg-47">
          <mxGeometry relative="1" as="geometry">
            <mxPoint x="1149.9999999999995" y="559.9999999999998" as="targetPoint" />
          </mxGeometry>
        </mxCell>
        <mxCell id="5eT7uDyZR-PTK469yZFg-34" value="Menu / navbar" style="ellipse;whiteSpace=wrap;html=1;" vertex="1" parent="1">
          <mxGeometry x="1325" y="420" width="120" height="50" as="geometry" />
        </mxCell>
        <mxCell id="5eT7uDyZR-PTK469yZFg-54" style="edgeStyle=orthogonalEdgeStyle;rounded=0;orthogonalLoop=1;jettySize=auto;html=1;exitX=1;exitY=0.5;exitDx=0;exitDy=0;entryX=0;entryY=0.5;entryDx=0;entryDy=0;" edge="1" parent="1" source="5eT7uDyZR-PTK469yZFg-36" target="5eT7uDyZR-PTK469yZFg-52">
          <mxGeometry relative="1" as="geometry" />
        </mxCell>
        <mxCell id="5eT7uDyZR-PTK469yZFg-55" style="edgeStyle=orthogonalEdgeStyle;rounded=0;orthogonalLoop=1;jettySize=auto;html=1;exitX=1;exitY=0.5;exitDx=0;exitDy=0;entryX=0;entryY=0.5;entryDx=0;entryDy=0;" edge="1" parent="1" source="5eT7uDyZR-PTK469yZFg-36" target="5eT7uDyZR-PTK469yZFg-51">
          <mxGeometry relative="1" as="geometry" />
        </mxCell>
        <mxCell id="5eT7uDyZR-PTK469yZFg-56" style="edgeStyle=orthogonalEdgeStyle;rounded=0;orthogonalLoop=1;jettySize=auto;html=1;exitX=1;exitY=0.5;exitDx=0;exitDy=0;entryX=0;entryY=0.5;entryDx=0;entryDy=0;" edge="1" parent="1" source="5eT7uDyZR-PTK469yZFg-36" target="5eT7uDyZR-PTK469yZFg-53">
          <mxGeometry relative="1" as="geometry" />
        </mxCell>
        <mxCell id="5eT7uDyZR-PTK469yZFg-36" value="Gerencia idosos" style="ellipse;whiteSpace=wrap;html=1;" vertex="1" parent="1">
          <mxGeometry x="1610" y="430" width="120" height="50" as="geometry" />
        </mxCell>
        <mxCell id="5eT7uDyZR-PTK469yZFg-38" value="Agenda" style="ellipse;whiteSpace=wrap;html=1;" vertex="1" parent="1">
          <mxGeometry x="1000" y="430" width="120" height="50" as="geometry" />
        </mxCell>
        <mxCell id="5eT7uDyZR-PTK469yZFg-44" value="Perfil" style="ellipse;whiteSpace=wrap;html=1;" vertex="1" parent="1">
          <mxGeometry x="1540" y="530" width="120" height="40" as="geometry" />
        </mxCell>
        <mxCell id="5eT7uDyZR-PTK469yZFg-47" value="Configurações" style="ellipse;whiteSpace=wrap;html=1;" vertex="1" parent="1">
          <mxGeometry x="1090" y="530" width="120" height="40" as="geometry" />
        </mxCell>
        <mxCell id="5eT7uDyZR-PTK469yZFg-60" style="edgeStyle=orthogonalEdgeStyle;rounded=0;orthogonalLoop=1;jettySize=auto;html=1;exitX=1;exitY=0.5;exitDx=0;exitDy=0;" edge="1" parent="1" source="5eT7uDyZR-PTK469yZFg-51" target="5eT7uDyZR-PTK469yZFg-61">
          <mxGeometry relative="1" as="geometry">
            <mxPoint x="1970" y="455.41176470588243" as="targetPoint" />
          </mxGeometry>
        </mxCell>
        <mxCell id="5eT7uDyZR-PTK469yZFg-68" style="edgeStyle=orthogonalEdgeStyle;rounded=0;orthogonalLoop=1;jettySize=auto;html=1;exitX=1;exitY=0.5;exitDx=0;exitDy=0;entryX=0;entryY=0.5;entryDx=0;entryDy=0;" edge="1" parent="1" source="5eT7uDyZR-PTK469yZFg-51" target="5eT7uDyZR-PTK469yZFg-67">
          <mxGeometry relative="1" as="geometry" />
        </mxCell>
        <mxCell id="5eT7uDyZR-PTK469yZFg-69" style="edgeStyle=orthogonalEdgeStyle;rounded=0;orthogonalLoop=1;jettySize=auto;html=1;exitX=1;exitY=0.5;exitDx=0;exitDy=0;entryX=0;entryY=0.5;entryDx=0;entryDy=0;" edge="1" parent="1" source="5eT7uDyZR-PTK469yZFg-51" target="5eT7uDyZR-PTK469yZFg-64">
          <mxGeometry relative="1" as="geometry" />
        </mxCell>
        <mxCell id="5eT7uDyZR-PTK469yZFg-70" style="edgeStyle=orthogonalEdgeStyle;rounded=0;orthogonalLoop=1;jettySize=auto;html=1;exitX=1;exitY=0.5;exitDx=0;exitDy=0;entryX=0;entryY=0.5;entryDx=0;entryDy=0;" edge="1" parent="1" source="5eT7uDyZR-PTK469yZFg-51" target="5eT7uDyZR-PTK469yZFg-63">
          <mxGeometry relative="1" as="geometry" />
        </mxCell>
        <mxCell id="5eT7uDyZR-PTK469yZFg-71" style="edgeStyle=orthogonalEdgeStyle;rounded=0;orthogonalLoop=1;jettySize=auto;html=1;exitX=1;exitY=0.5;exitDx=0;exitDy=0;entryX=0;entryY=0.5;entryDx=0;entryDy=0;" edge="1" parent="1" source="5eT7uDyZR-PTK469yZFg-51" target="5eT7uDyZR-PTK469yZFg-66">
          <mxGeometry relative="1" as="geometry" />
        </mxCell>
        <mxCell id="5eT7uDyZR-PTK469yZFg-51" value="Acessa idoso" style="ellipse;whiteSpace=wrap;html=1;" vertex="1" parent="1">
          <mxGeometry x="1770" y="430" width="120" height="50" as="geometry" />
        </mxCell>
        <mxCell id="5eT7uDyZR-PTK469yZFg-52" value="Exclui idoso" style="ellipse;whiteSpace=wrap;html=1;" vertex="1" parent="1">
          <mxGeometry x="1770" y="530" width="120" height="50" as="geometry" />
        </mxCell>
        <mxCell id="5eT7uDyZR-PTK469yZFg-57" value="" style="edgeStyle=orthogonalEdgeStyle;rounded=0;orthogonalLoop=1;jettySize=auto;html=1;" edge="1" parent="1" source="5eT7uDyZR-PTK469yZFg-53" target="5eT7uDyZR-PTK469yZFg-51">
          <mxGeometry relative="1" as="geometry" />
        </mxCell>
        <mxCell id="5eT7uDyZR-PTK469yZFg-53" value="Cria idoso" style="ellipse;whiteSpace=wrap;html=1;" vertex="1" parent="1">
          <mxGeometry x="1770" y="325" width="120" height="45" as="geometry" />
        </mxCell>
        <mxCell id="5eT7uDyZR-PTK469yZFg-82" style="edgeStyle=orthogonalEdgeStyle;rounded=0;orthogonalLoop=1;jettySize=auto;html=1;exitX=1;exitY=0.5;exitDx=0;exitDy=0;entryX=0;entryY=0.5;entryDx=0;entryDy=0;" edge="1" parent="1" source="5eT7uDyZR-PTK469yZFg-61" target="5eT7uDyZR-PTK469yZFg-80">
          <mxGeometry relative="1" as="geometry" />
        </mxCell>
        <mxCell id="5eT7uDyZR-PTK469yZFg-83" style="edgeStyle=orthogonalEdgeStyle;rounded=0;orthogonalLoop=1;jettySize=auto;html=1;exitX=1;exitY=0.5;exitDx=0;exitDy=0;entryX=0;entryY=0.5;entryDx=0;entryDy=0;" edge="1" parent="1" source="5eT7uDyZR-PTK469yZFg-61" target="5eT7uDyZR-PTK469yZFg-79">
          <mxGeometry relative="1" as="geometry" />
        </mxCell>
        <mxCell id="5eT7uDyZR-PTK469yZFg-84" style="edgeStyle=orthogonalEdgeStyle;rounded=0;orthogonalLoop=1;jettySize=auto;html=1;exitX=1;exitY=0.5;exitDx=0;exitDy=0;entryX=0;entryY=0.5;entryDx=0;entryDy=0;" edge="1" parent="1" source="5eT7uDyZR-PTK469yZFg-61" target="5eT7uDyZR-PTK469yZFg-81">
          <mxGeometry relative="1" as="geometry" />
        </mxCell>
        <mxCell id="5eT7uDyZR-PTK469yZFg-61" value="Lembretes" style="ellipse;whiteSpace=wrap;html=1;" vertex="1" parent="1">
          <mxGeometry x="1980" y="432.5" width="120" height="45" as="geometry" />
        </mxCell>
        <mxCell id="5eT7uDyZR-PTK469yZFg-89" style="edgeStyle=orthogonalEdgeStyle;rounded=0;orthogonalLoop=1;jettySize=auto;html=1;exitX=1;exitY=0.5;exitDx=0;exitDy=0;entryX=0;entryY=0.5;entryDx=0;entryDy=0;" edge="1" parent="1" source="5eT7uDyZR-PTK469yZFg-63" target="5eT7uDyZR-PTK469yZFg-87">
          <mxGeometry relative="1" as="geometry" />
        </mxCell>
        <mxCell id="5eT7uDyZR-PTK469yZFg-90" style="edgeStyle=orthogonalEdgeStyle;rounded=0;orthogonalLoop=1;jettySize=auto;html=1;exitX=1;exitY=0.5;exitDx=0;exitDy=0;" edge="1" parent="1" source="5eT7uDyZR-PTK469yZFg-63" target="5eT7uDyZR-PTK469yZFg-86">
          <mxGeometry relative="1" as="geometry" />
        </mxCell>
        <mxCell id="5eT7uDyZR-PTK469yZFg-91" style="edgeStyle=orthogonalEdgeStyle;rounded=0;orthogonalLoop=1;jettySize=auto;html=1;exitX=1;exitY=0.5;exitDx=0;exitDy=0;entryX=0;entryY=0.5;entryDx=0;entryDy=0;" edge="1" parent="1" source="5eT7uDyZR-PTK469yZFg-63" target="5eT7uDyZR-PTK469yZFg-85">
          <mxGeometry relative="1" as="geometry" />
        </mxCell>
        <mxCell id="5eT7uDyZR-PTK469yZFg-95" style="edgeStyle=orthogonalEdgeStyle;rounded=0;orthogonalLoop=1;jettySize=auto;html=1;exitX=1;exitY=0.5;exitDx=0;exitDy=0;entryX=0;entryY=0.5;entryDx=0;entryDy=0;" edge="1" parent="1" source="5eT7uDyZR-PTK469yZFg-63" target="5eT7uDyZR-PTK469yZFg-93">
          <mxGeometry relative="1" as="geometry" />
        </mxCell>
        <mxCell id="5eT7uDyZR-PTK469yZFg-63" value="Saúde" style="ellipse;whiteSpace=wrap;html=1;" vertex="1" parent="1">
          <mxGeometry x="1980" y="150" width="120" height="45" as="geometry" />
        </mxCell>
        <mxCell id="5eT7uDyZR-PTK469yZFg-77" style="edgeStyle=orthogonalEdgeStyle;rounded=0;orthogonalLoop=1;jettySize=auto;html=1;exitX=0;exitY=0.5;exitDx=0;exitDy=0;entryX=0;entryY=0.5;entryDx=0;entryDy=0;" edge="1" parent="1" source="5eT7uDyZR-PTK469yZFg-64" target="5eT7uDyZR-PTK469yZFg-63">
          <mxGeometry relative="1" as="geometry" />
        </mxCell>
        <mxCell id="5eT7uDyZR-PTK469yZFg-64" value="Perfil" style="ellipse;whiteSpace=wrap;html=1;" vertex="1" parent="1">
          <mxGeometry x="1980" y="630" width="120" height="40" as="geometry" />
        </mxCell>
        <mxCell id="5eT7uDyZR-PTK469yZFg-98" style="edgeStyle=orthogonalEdgeStyle;rounded=0;orthogonalLoop=1;jettySize=auto;html=1;exitX=1;exitY=0.5;exitDx=0;exitDy=0;entryX=0;entryY=0.5;entryDx=0;entryDy=0;" edge="1" parent="1" source="5eT7uDyZR-PTK469yZFg-66" target="5eT7uDyZR-PTK469yZFg-97">
          <mxGeometry relative="1" as="geometry" />
        </mxCell>
        <mxCell id="5eT7uDyZR-PTK469yZFg-99" style="edgeStyle=orthogonalEdgeStyle;rounded=0;orthogonalLoop=1;jettySize=auto;html=1;exitX=1;exitY=0.5;exitDx=0;exitDy=0;entryX=0;entryY=0.5;entryDx=0;entryDy=0;" edge="1" parent="1" source="5eT7uDyZR-PTK469yZFg-66" target="5eT7uDyZR-PTK469yZFg-96">
          <mxGeometry relative="1" as="geometry" />
        </mxCell>
        <mxCell id="5eT7uDyZR-PTK469yZFg-66" value="Notificações" style="ellipse;whiteSpace=wrap;html=1;" vertex="1" parent="1">
          <mxGeometry x="1980" y="-130" width="120" height="40" as="geometry" />
        </mxCell>
        <mxCell id="5eT7uDyZR-PTK469yZFg-67" value="Agenda" style="ellipse;whiteSpace=wrap;html=1;" vertex="1" parent="1">
          <mxGeometry x="1980" y="790" width="120" height="40" as="geometry" />
        </mxCell>
        <mxCell id="5eT7uDyZR-PTK469yZFg-74" value="Informações" style="ellipse;whiteSpace=wrap;html=1;" vertex="1" parent="1">
          <mxGeometry x="110" y="382.5" width="120" height="50" as="geometry" />
        </mxCell>
        <mxCell id="5eT7uDyZR-PTK469yZFg-79" value="Alimentação" style="ellipse;whiteSpace=wrap;html=1;" vertex="1" parent="1">
          <mxGeometry x="2190" y="427.5" width="120" height="55" as="geometry" />
        </mxCell>
        <mxCell id="5eT7uDyZR-PTK469yZFg-80" value="Medicações" style="ellipse;whiteSpace=wrap;html=1;" vertex="1" parent="1">
          <mxGeometry x="2190" y="490" width="120" height="55" as="geometry" />
        </mxCell>
        <mxCell id="5eT7uDyZR-PTK469yZFg-81" value="Atividades físicas" style="ellipse;whiteSpace=wrap;html=1;" vertex="1" parent="1">
          <mxGeometry x="2190" y="365" width="120" height="55" as="geometry" />
        </mxCell>
        <mxCell id="5eT7uDyZR-PTK469yZFg-85" value="Informações médicas" style="ellipse;whiteSpace=wrap;html=1;" vertex="1" parent="1">
          <mxGeometry x="2180" y="120" width="120" height="50" as="geometry" />
        </mxCell>
        <mxCell id="5eT7uDyZR-PTK469yZFg-86" value="Restrições" style="ellipse;whiteSpace=wrap;html=1;" vertex="1" parent="1">
          <mxGeometry x="2180" y="195" width="120" height="40" as="geometry" />
        </mxCell>
        <mxCell id="5eT7uDyZR-PTK469yZFg-87" value="Medicações" style="ellipse;whiteSpace=wrap;html=1;" vertex="1" parent="1">
          <mxGeometry x="2180" y="260" width="120" height="40" as="geometry" />
        </mxCell>
        <mxCell id="5eT7uDyZR-PTK469yZFg-93" value="Histórico" style="ellipse;whiteSpace=wrap;html=1;" vertex="1" parent="1">
          <mxGeometry x="2180" y="50" width="120" height="50" as="geometry" />
        </mxCell>
        <mxCell id="5eT7uDyZR-PTK469yZFg-96" value="SOS" style="ellipse;whiteSpace=wrap;html=1;" vertex="1" parent="1">
          <mxGeometry x="2180" y="-180" width="120" height="40" as="geometry" />
        </mxCell>
        <mxCell id="5eT7uDyZR-PTK469yZFg-97" value="Agenda" style="ellipse;whiteSpace=wrap;html=1;" vertex="1" parent="1">
          <mxGeometry x="2180" y="-70" width="120" height="40" as="geometry" />
        </mxCell>
      </root>
    </mxGraphModel>
  </diagram>
</mxfile>
